<mxfile host="app.diagrams.net" modified="2022-08-25T21:11:49.488Z" agent="5.0 (Windows NT 10.0; Win64; x64) AppleWebKit/537.36 (KHTML, like Gecko) Chrome/104.0.5112.81 Safari/537.36 Edg/104.0.1293.54" etag="myNDNvBib_MgrI_Da42v" version="20.2.7" type="github">
  <diagram name="Page-1" id="822b0af5-4adb-64df-f703-e8dfc1f81529">
    <mxGraphModel dx="1422" dy="762" grid="1" gridSize="10" guides="1" tooltips="1" connect="1" arrows="1" fold="1" page="1" pageScale="1" pageWidth="1100" pageHeight="850" background="none" math="0" shadow="0">
      <root>
        <mxCell id="0" />
        <mxCell id="1" parent="0" />
        <mxCell id="j317D0vzL4WZu0Wd4Jou-22" style="edgeStyle=orthogonalEdgeStyle;rounded=0;jumpStyle=arc;orthogonalLoop=1;jettySize=auto;html=1;startArrow=classic;startFill=1;strokeColor=default;" edge="1" parent="1" source="j317D0vzL4WZu0Wd4Jou-1" target="j317D0vzL4WZu0Wd4Jou-7">
          <mxGeometry relative="1" as="geometry" />
        </mxCell>
        <mxCell id="j317D0vzL4WZu0Wd4Jou-1" value="DFN" style="aspect=fixed;perimeter=ellipsePerimeter;html=1;align=center;shadow=0;dashed=0;spacingTop=3;image;image=img/lib/active_directory/internet_cloud.svg;" vertex="1" parent="1">
          <mxGeometry x="520" y="14.25" width="50" height="31.5" as="geometry" />
        </mxCell>
        <mxCell id="j317D0vzL4WZu0Wd4Jou-23" style="edgeStyle=orthogonalEdgeStyle;rounded=0;jumpStyle=arc;orthogonalLoop=1;jettySize=auto;html=1;entryX=0.5;entryY=0;entryDx=0;entryDy=0;startArrow=classic;startFill=1;strokeColor=default;" edge="1" parent="1" source="j317D0vzL4WZu0Wd4Jou-2" target="j317D0vzL4WZu0Wd4Jou-8">
          <mxGeometry relative="1" as="geometry" />
        </mxCell>
        <mxCell id="j317D0vzL4WZu0Wd4Jou-2" value="Spectrum" style="aspect=fixed;perimeter=ellipsePerimeter;html=1;align=center;shadow=0;dashed=0;spacingTop=3;image;image=img/lib/active_directory/internet_cloud.svg;" vertex="1" parent="1">
          <mxGeometry x="610" y="14.25" width="50" height="31.5" as="geometry" />
        </mxCell>
        <mxCell id="j317D0vzL4WZu0Wd4Jou-5" value="IPv4=100.42.173.154&lt;br&gt;Subnet = 255.255.255.252&lt;br&gt;Router = 100.42.173.153&lt;br&gt;" style="text;html=1;align=center;verticalAlign=middle;resizable=0;points=[];autosize=1;strokeColor=none;fillColor=none;" vertex="1" parent="1">
          <mxGeometry x="190" width="170" height="60" as="geometry" />
        </mxCell>
        <mxCell id="j317D0vzL4WZu0Wd4Jou-6" value="IPv4=156.19.194.106&lt;br&gt;Subnet=255.255.255.252&lt;br&gt;Router=156.19.194.105" style="text;html=1;align=center;verticalAlign=middle;resizable=0;points=[];autosize=1;strokeColor=none;fillColor=none;" vertex="1" parent="1">
          <mxGeometry x="840" width="160" height="60" as="geometry" />
        </mxCell>
        <mxCell id="j317D0vzL4WZu0Wd4Jou-7" value="" style="aspect=fixed;perimeter=ellipsePerimeter;html=1;align=center;shadow=0;dashed=0;spacingTop=3;image;image=img/lib/active_directory/modem.svg;" vertex="1" parent="1">
          <mxGeometry x="460" y="80" width="50" height="41.5" as="geometry" />
        </mxCell>
        <mxCell id="j317D0vzL4WZu0Wd4Jou-8" value="" style="aspect=fixed;perimeter=ellipsePerimeter;html=1;align=center;shadow=0;dashed=0;spacingTop=3;image;image=img/lib/active_directory/modem.svg;" vertex="1" parent="1">
          <mxGeometry x="670" y="80" width="50" height="41.5" as="geometry" />
        </mxCell>
        <mxCell id="j317D0vzL4WZu0Wd4Jou-18" style="edgeStyle=orthogonalEdgeStyle;orthogonalLoop=1;jettySize=auto;html=1;entryX=0.5;entryY=1;entryDx=0;entryDy=0;jumpStyle=arc;strokeColor=default;rounded=0;startArrow=classic;startFill=1;" edge="1" parent="1" source="j317D0vzL4WZu0Wd4Jou-15" target="j317D0vzL4WZu0Wd4Jou-7">
          <mxGeometry relative="1" as="geometry" />
        </mxCell>
        <mxCell id="j317D0vzL4WZu0Wd4Jou-19" style="edgeStyle=orthogonalEdgeStyle;rounded=0;orthogonalLoop=1;jettySize=auto;html=1;entryX=0.5;entryY=1;entryDx=0;entryDy=0;startArrow=classic;startFill=1;" edge="1" parent="1" source="j317D0vzL4WZu0Wd4Jou-15" target="j317D0vzL4WZu0Wd4Jou-8">
          <mxGeometry relative="1" as="geometry" />
        </mxCell>
        <mxCell id="j317D0vzL4WZu0Wd4Jou-25" style="edgeStyle=orthogonalEdgeStyle;rounded=0;jumpStyle=arc;orthogonalLoop=1;jettySize=auto;html=1;startArrow=classic;startFill=1;strokeColor=default;" edge="1" parent="1" source="j317D0vzL4WZu0Wd4Jou-15" target="j317D0vzL4WZu0Wd4Jou-24">
          <mxGeometry relative="1" as="geometry" />
        </mxCell>
        <mxCell id="j317D0vzL4WZu0Wd4Jou-15" value="UDM Pro(Roseburg)" style="image;html=1;image=img/lib/clip_art/networking/Router_128x128.png" vertex="1" parent="1">
          <mxGeometry x="560" y="131.5" width="80" height="80" as="geometry" />
        </mxCell>
        <mxCell id="j317D0vzL4WZu0Wd4Jou-197" style="edgeStyle=orthogonalEdgeStyle;rounded=0;jumpStyle=arc;orthogonalLoop=1;jettySize=auto;html=1;entryX=0.5;entryY=0;entryDx=0;entryDy=0;entryPerimeter=0;startArrow=classic;startFill=1;strokeColor=default;" edge="1" parent="1" source="j317D0vzL4WZu0Wd4Jou-24" target="j317D0vzL4WZu0Wd4Jou-195">
          <mxGeometry relative="1" as="geometry" />
        </mxCell>
        <mxCell id="j317D0vzL4WZu0Wd4Jou-24" value="" style="points=[];aspect=fixed;html=1;align=center;shadow=0;dashed=0;image;image=img/lib/allied_telesis/switch/Switch_48_port_L2.svg;" vertex="1" parent="1">
          <mxGeometry x="561" y="250" width="78" height="52.8" as="geometry" />
        </mxCell>
        <mxCell id="j317D0vzL4WZu0Wd4Jou-107" value="" style="group" vertex="1" connectable="0" parent="1">
          <mxGeometry x="1230" y="390" width="944" height="220" as="geometry" />
        </mxCell>
        <mxCell id="j317D0vzL4WZu0Wd4Jou-27" value="1" style="whiteSpace=wrap;html=1;aspect=fixed;" vertex="1" parent="j317D0vzL4WZu0Wd4Jou-107">
          <mxGeometry width="35" height="35" as="geometry" />
        </mxCell>
        <mxCell id="j317D0vzL4WZu0Wd4Jou-30" value="3" style="whiteSpace=wrap;html=1;aspect=fixed;" vertex="1" parent="j317D0vzL4WZu0Wd4Jou-107">
          <mxGeometry x="35" width="35" height="35" as="geometry" />
        </mxCell>
        <mxCell id="j317D0vzL4WZu0Wd4Jou-31" value="5" style="whiteSpace=wrap;html=1;aspect=fixed;" vertex="1" parent="j317D0vzL4WZu0Wd4Jou-107">
          <mxGeometry x="70" width="35" height="35" as="geometry" />
        </mxCell>
        <mxCell id="j317D0vzL4WZu0Wd4Jou-32" value="7" style="whiteSpace=wrap;html=1;aspect=fixed;" vertex="1" parent="j317D0vzL4WZu0Wd4Jou-107">
          <mxGeometry x="105" width="35" height="35" as="geometry" />
        </mxCell>
        <mxCell id="j317D0vzL4WZu0Wd4Jou-33" value="9" style="whiteSpace=wrap;html=1;aspect=fixed;" vertex="1" parent="j317D0vzL4WZu0Wd4Jou-107">
          <mxGeometry x="140" width="35" height="35" as="geometry" />
        </mxCell>
        <mxCell id="j317D0vzL4WZu0Wd4Jou-34" value="11" style="whiteSpace=wrap;html=1;aspect=fixed;" vertex="1" parent="j317D0vzL4WZu0Wd4Jou-107">
          <mxGeometry x="175" width="35" height="35" as="geometry" />
        </mxCell>
        <mxCell id="j317D0vzL4WZu0Wd4Jou-35" value="13" style="whiteSpace=wrap;html=1;aspect=fixed;" vertex="1" parent="j317D0vzL4WZu0Wd4Jou-107">
          <mxGeometry x="207.5" width="35" height="35" as="geometry" />
        </mxCell>
        <mxCell id="j317D0vzL4WZu0Wd4Jou-36" value="15" style="whiteSpace=wrap;html=1;aspect=fixed;" vertex="1" parent="j317D0vzL4WZu0Wd4Jou-107">
          <mxGeometry x="242.5" width="35" height="35" as="geometry" />
        </mxCell>
        <mxCell id="j317D0vzL4WZu0Wd4Jou-37" value="17" style="whiteSpace=wrap;html=1;aspect=fixed;" vertex="1" parent="j317D0vzL4WZu0Wd4Jou-107">
          <mxGeometry x="277.5" width="35" height="35" as="geometry" />
        </mxCell>
        <mxCell id="j317D0vzL4WZu0Wd4Jou-38" value="19" style="whiteSpace=wrap;html=1;aspect=fixed;" vertex="1" parent="j317D0vzL4WZu0Wd4Jou-107">
          <mxGeometry x="310" width="35" height="35" as="geometry" />
        </mxCell>
        <mxCell id="j317D0vzL4WZu0Wd4Jou-39" value="21" style="whiteSpace=wrap;html=1;aspect=fixed;" vertex="1" parent="j317D0vzL4WZu0Wd4Jou-107">
          <mxGeometry x="345" width="35" height="35" as="geometry" />
        </mxCell>
        <mxCell id="j317D0vzL4WZu0Wd4Jou-40" value="23" style="whiteSpace=wrap;html=1;aspect=fixed;" vertex="1" parent="j317D0vzL4WZu0Wd4Jou-107">
          <mxGeometry x="380" width="35" height="35" as="geometry" />
        </mxCell>
        <mxCell id="j317D0vzL4WZu0Wd4Jou-41" value="25" style="whiteSpace=wrap;html=1;aspect=fixed;" vertex="1" parent="j317D0vzL4WZu0Wd4Jou-107">
          <mxGeometry x="415" width="35" height="35" as="geometry" />
        </mxCell>
        <mxCell id="j317D0vzL4WZu0Wd4Jou-42" value="27" style="whiteSpace=wrap;html=1;aspect=fixed;" vertex="1" parent="j317D0vzL4WZu0Wd4Jou-107">
          <mxGeometry x="450" width="35" height="35" as="geometry" />
        </mxCell>
        <mxCell id="j317D0vzL4WZu0Wd4Jou-43" value="29" style="whiteSpace=wrap;html=1;aspect=fixed;" vertex="1" parent="j317D0vzL4WZu0Wd4Jou-107">
          <mxGeometry x="485" width="35" height="35" as="geometry" />
        </mxCell>
        <mxCell id="j317D0vzL4WZu0Wd4Jou-44" value="31" style="whiteSpace=wrap;html=1;aspect=fixed;" vertex="1" parent="j317D0vzL4WZu0Wd4Jou-107">
          <mxGeometry x="520" width="35" height="35" as="geometry" />
        </mxCell>
        <mxCell id="j317D0vzL4WZu0Wd4Jou-45" value="33" style="whiteSpace=wrap;html=1;aspect=fixed;" vertex="1" parent="j317D0vzL4WZu0Wd4Jou-107">
          <mxGeometry x="552.5" width="35" height="35" as="geometry" />
        </mxCell>
        <mxCell id="j317D0vzL4WZu0Wd4Jou-46" value="35" style="whiteSpace=wrap;html=1;aspect=fixed;" vertex="1" parent="j317D0vzL4WZu0Wd4Jou-107">
          <mxGeometry x="587.5" width="35" height="35" as="geometry" />
        </mxCell>
        <mxCell id="j317D0vzL4WZu0Wd4Jou-47" value="37" style="whiteSpace=wrap;html=1;aspect=fixed;" vertex="1" parent="j317D0vzL4WZu0Wd4Jou-107">
          <mxGeometry x="622.5" width="35" height="35" as="geometry" />
        </mxCell>
        <mxCell id="j317D0vzL4WZu0Wd4Jou-48" value="39" style="whiteSpace=wrap;html=1;aspect=fixed;" vertex="1" parent="j317D0vzL4WZu0Wd4Jou-107">
          <mxGeometry x="655" width="35" height="35" as="geometry" />
        </mxCell>
        <mxCell id="j317D0vzL4WZu0Wd4Jou-79" value="41" style="whiteSpace=wrap;html=1;aspect=fixed;" vertex="1" parent="j317D0vzL4WZu0Wd4Jou-107">
          <mxGeometry x="690" width="35" height="35" as="geometry" />
        </mxCell>
        <mxCell id="j317D0vzL4WZu0Wd4Jou-80" value="43" style="whiteSpace=wrap;html=1;aspect=fixed;" vertex="1" parent="j317D0vzL4WZu0Wd4Jou-107">
          <mxGeometry x="725" width="35" height="35" as="geometry" />
        </mxCell>
        <mxCell id="j317D0vzL4WZu0Wd4Jou-81" value="45" style="whiteSpace=wrap;html=1;aspect=fixed;" vertex="1" parent="j317D0vzL4WZu0Wd4Jou-107">
          <mxGeometry x="760" width="35" height="35" as="geometry" />
        </mxCell>
        <mxCell id="j317D0vzL4WZu0Wd4Jou-82" value="47" style="whiteSpace=wrap;html=1;aspect=fixed;" vertex="1" parent="j317D0vzL4WZu0Wd4Jou-107">
          <mxGeometry x="792.5" width="35" height="35" as="geometry" />
        </mxCell>
        <mxCell id="j317D0vzL4WZu0Wd4Jou-83" value="2" style="whiteSpace=wrap;html=1;aspect=fixed;" vertex="1" parent="j317D0vzL4WZu0Wd4Jou-107">
          <mxGeometry y="35" width="35" height="35" as="geometry" />
        </mxCell>
        <mxCell id="j317D0vzL4WZu0Wd4Jou-84" value="4" style="whiteSpace=wrap;html=1;aspect=fixed;" vertex="1" parent="j317D0vzL4WZu0Wd4Jou-107">
          <mxGeometry x="35" y="35" width="35" height="35" as="geometry" />
        </mxCell>
        <mxCell id="j317D0vzL4WZu0Wd4Jou-85" value="6" style="whiteSpace=wrap;html=1;aspect=fixed;" vertex="1" parent="j317D0vzL4WZu0Wd4Jou-107">
          <mxGeometry x="70" y="35" width="35" height="35" as="geometry" />
        </mxCell>
        <mxCell id="j317D0vzL4WZu0Wd4Jou-86" value="8" style="whiteSpace=wrap;html=1;aspect=fixed;" vertex="1" parent="j317D0vzL4WZu0Wd4Jou-107">
          <mxGeometry x="105" y="35" width="35" height="35" as="geometry" />
        </mxCell>
        <mxCell id="j317D0vzL4WZu0Wd4Jou-87" value="10" style="whiteSpace=wrap;html=1;aspect=fixed;" vertex="1" parent="j317D0vzL4WZu0Wd4Jou-107">
          <mxGeometry x="140" y="35" width="35" height="35" as="geometry" />
        </mxCell>
        <mxCell id="j317D0vzL4WZu0Wd4Jou-88" value="12" style="whiteSpace=wrap;html=1;aspect=fixed;" vertex="1" parent="j317D0vzL4WZu0Wd4Jou-107">
          <mxGeometry x="175" y="35" width="35" height="35" as="geometry" />
        </mxCell>
        <mxCell id="j317D0vzL4WZu0Wd4Jou-89" value="14" style="whiteSpace=wrap;html=1;aspect=fixed;" vertex="1" parent="j317D0vzL4WZu0Wd4Jou-107">
          <mxGeometry x="207.5" y="35" width="35" height="35" as="geometry" />
        </mxCell>
        <mxCell id="j317D0vzL4WZu0Wd4Jou-90" value="16" style="whiteSpace=wrap;html=1;aspect=fixed;" vertex="1" parent="j317D0vzL4WZu0Wd4Jou-107">
          <mxGeometry x="242.5" y="35" width="35" height="35" as="geometry" />
        </mxCell>
        <mxCell id="j317D0vzL4WZu0Wd4Jou-91" value="18" style="whiteSpace=wrap;html=1;aspect=fixed;" vertex="1" parent="j317D0vzL4WZu0Wd4Jou-107">
          <mxGeometry x="277.5" y="35" width="35" height="35" as="geometry" />
        </mxCell>
        <mxCell id="j317D0vzL4WZu0Wd4Jou-92" value="20" style="whiteSpace=wrap;html=1;aspect=fixed;" vertex="1" parent="j317D0vzL4WZu0Wd4Jou-107">
          <mxGeometry x="310" y="35" width="35" height="35" as="geometry" />
        </mxCell>
        <mxCell id="j317D0vzL4WZu0Wd4Jou-93" value="22" style="whiteSpace=wrap;html=1;aspect=fixed;" vertex="1" parent="j317D0vzL4WZu0Wd4Jou-107">
          <mxGeometry x="345" y="35" width="35" height="35" as="geometry" />
        </mxCell>
        <mxCell id="j317D0vzL4WZu0Wd4Jou-94" value="24" style="whiteSpace=wrap;html=1;aspect=fixed;" vertex="1" parent="j317D0vzL4WZu0Wd4Jou-107">
          <mxGeometry x="380" y="35" width="35" height="35" as="geometry" />
        </mxCell>
        <mxCell id="j317D0vzL4WZu0Wd4Jou-95" value="26" style="whiteSpace=wrap;html=1;aspect=fixed;" vertex="1" parent="j317D0vzL4WZu0Wd4Jou-107">
          <mxGeometry x="415" y="35" width="35" height="35" as="geometry" />
        </mxCell>
        <mxCell id="j317D0vzL4WZu0Wd4Jou-96" value="28" style="whiteSpace=wrap;html=1;aspect=fixed;" vertex="1" parent="j317D0vzL4WZu0Wd4Jou-107">
          <mxGeometry x="450" y="35" width="35" height="35" as="geometry" />
        </mxCell>
        <mxCell id="j317D0vzL4WZu0Wd4Jou-97" value="30" style="whiteSpace=wrap;html=1;aspect=fixed;" vertex="1" parent="j317D0vzL4WZu0Wd4Jou-107">
          <mxGeometry x="485" y="35" width="35" height="35" as="geometry" />
        </mxCell>
        <mxCell id="j317D0vzL4WZu0Wd4Jou-98" value="32" style="whiteSpace=wrap;html=1;aspect=fixed;" vertex="1" parent="j317D0vzL4WZu0Wd4Jou-107">
          <mxGeometry x="520" y="35" width="35" height="35" as="geometry" />
        </mxCell>
        <mxCell id="j317D0vzL4WZu0Wd4Jou-99" value="34" style="whiteSpace=wrap;html=1;aspect=fixed;" vertex="1" parent="j317D0vzL4WZu0Wd4Jou-107">
          <mxGeometry x="552.5" y="35" width="35" height="35" as="geometry" />
        </mxCell>
        <mxCell id="j317D0vzL4WZu0Wd4Jou-100" value="36" style="whiteSpace=wrap;html=1;aspect=fixed;" vertex="1" parent="j317D0vzL4WZu0Wd4Jou-107">
          <mxGeometry x="587.5" y="35" width="35" height="35" as="geometry" />
        </mxCell>
        <mxCell id="j317D0vzL4WZu0Wd4Jou-101" value="38" style="whiteSpace=wrap;html=1;aspect=fixed;" vertex="1" parent="j317D0vzL4WZu0Wd4Jou-107">
          <mxGeometry x="622.5" y="35" width="35" height="35" as="geometry" />
        </mxCell>
        <mxCell id="j317D0vzL4WZu0Wd4Jou-102" value="40" style="whiteSpace=wrap;html=1;aspect=fixed;" vertex="1" parent="j317D0vzL4WZu0Wd4Jou-107">
          <mxGeometry x="655" y="35" width="35" height="35" as="geometry" />
        </mxCell>
        <mxCell id="j317D0vzL4WZu0Wd4Jou-103" value="42" style="whiteSpace=wrap;html=1;aspect=fixed;" vertex="1" parent="j317D0vzL4WZu0Wd4Jou-107">
          <mxGeometry x="690" y="35" width="35" height="35" as="geometry" />
        </mxCell>
        <mxCell id="j317D0vzL4WZu0Wd4Jou-104" value="44" style="whiteSpace=wrap;html=1;aspect=fixed;" vertex="1" parent="j317D0vzL4WZu0Wd4Jou-107">
          <mxGeometry x="725" y="35" width="35" height="35" as="geometry" />
        </mxCell>
        <mxCell id="j317D0vzL4WZu0Wd4Jou-105" value="46" style="whiteSpace=wrap;html=1;aspect=fixed;" vertex="1" parent="j317D0vzL4WZu0Wd4Jou-107">
          <mxGeometry x="760" y="35" width="35" height="35" as="geometry" />
        </mxCell>
        <mxCell id="j317D0vzL4WZu0Wd4Jou-106" value="48" style="whiteSpace=wrap;html=1;aspect=fixed;" vertex="1" parent="j317D0vzL4WZu0Wd4Jou-107">
          <mxGeometry x="792.5" y="35" width="35" height="35" as="geometry" />
        </mxCell>
        <mxCell id="j317D0vzL4WZu0Wd4Jou-125" style="edgeStyle=orthogonalEdgeStyle;rounded=0;jumpStyle=arc;orthogonalLoop=1;jettySize=auto;html=1;entryX=0.5;entryY=0;entryDx=0;entryDy=0;startArrow=classic;startFill=1;strokeColor=default;" edge="1" parent="j317D0vzL4WZu0Wd4Jou-107" source="j317D0vzL4WZu0Wd4Jou-117" target="j317D0vzL4WZu0Wd4Jou-30">
          <mxGeometry relative="1" as="geometry" />
        </mxCell>
        <mxCell id="j317D0vzL4WZu0Wd4Jou-117" value="Foreman Trailer Switch" style="text;html=1;align=center;verticalAlign=middle;resizable=0;points=[];autosize=1;strokeColor=none;fillColor=none;" vertex="1" parent="j317D0vzL4WZu0Wd4Jou-107">
          <mxGeometry x="-86" y="-70" width="150" height="30" as="geometry" />
        </mxCell>
        <mxCell id="j317D0vzL4WZu0Wd4Jou-119" value="PP-49&lt;br&gt;DevLaptop&lt;br&gt;" style="text;html=1;align=center;verticalAlign=middle;resizable=0;points=[];autosize=1;strokeColor=none;fillColor=none;" vertex="1" parent="j317D0vzL4WZu0Wd4Jou-107">
          <mxGeometry y="-110" width="80" height="40" as="geometry" />
        </mxCell>
        <mxCell id="j317D0vzL4WZu0Wd4Jou-126" style="edgeStyle=orthogonalEdgeStyle;rounded=0;jumpStyle=arc;orthogonalLoop=1;jettySize=auto;html=1;entryX=0.5;entryY=0;entryDx=0;entryDy=0;startArrow=classic;startFill=1;strokeColor=default;" edge="1" parent="j317D0vzL4WZu0Wd4Jou-107" source="j317D0vzL4WZu0Wd4Jou-119" target="j317D0vzL4WZu0Wd4Jou-31">
          <mxGeometry relative="1" as="geometry" />
        </mxCell>
        <mxCell id="j317D0vzL4WZu0Wd4Jou-145" value="White Wire Through ceiling&lt;br&gt;Rethwill" style="text;html=1;align=center;verticalAlign=middle;resizable=0;points=[];autosize=1;strokeColor=none;fillColor=none;" vertex="1" parent="j317D0vzL4WZu0Wd4Jou-107">
          <mxGeometry x="774" y="-80" width="170" height="40" as="geometry" />
        </mxCell>
        <mxCell id="j317D0vzL4WZu0Wd4Jou-146" style="edgeStyle=orthogonalEdgeStyle;rounded=0;jumpStyle=arc;orthogonalLoop=1;jettySize=auto;html=1;startArrow=classic;startFill=1;strokeColor=default;" edge="1" parent="j317D0vzL4WZu0Wd4Jou-107" source="j317D0vzL4WZu0Wd4Jou-145" target="j317D0vzL4WZu0Wd4Jou-82">
          <mxGeometry relative="1" as="geometry" />
        </mxCell>
        <mxCell id="j317D0vzL4WZu0Wd4Jou-163" style="edgeStyle=orthogonalEdgeStyle;rounded=0;jumpStyle=arc;orthogonalLoop=1;jettySize=auto;html=1;entryX=0.5;entryY=1;entryDx=0;entryDy=0;startArrow=classic;startFill=1;strokeColor=default;" edge="1" parent="j317D0vzL4WZu0Wd4Jou-107" source="j317D0vzL4WZu0Wd4Jou-162" target="j317D0vzL4WZu0Wd4Jou-85">
          <mxGeometry relative="1" as="geometry" />
        </mxCell>
        <mxCell id="j317D0vzL4WZu0Wd4Jou-162" value="PP-50&lt;br&gt;Leitch" style="text;html=1;align=center;verticalAlign=middle;resizable=0;points=[];autosize=1;strokeColor=none;fillColor=none;" vertex="1" parent="j317D0vzL4WZu0Wd4Jou-107">
          <mxGeometry x="20" y="130" width="60" height="40" as="geometry" />
        </mxCell>
        <mxCell id="j317D0vzL4WZu0Wd4Jou-165" style="edgeStyle=orthogonalEdgeStyle;rounded=0;jumpStyle=arc;orthogonalLoop=1;jettySize=auto;html=1;startArrow=classic;startFill=1;strokeColor=default;" edge="1" parent="j317D0vzL4WZu0Wd4Jou-107" source="j317D0vzL4WZu0Wd4Jou-164" target="j317D0vzL4WZu0Wd4Jou-86">
          <mxGeometry relative="1" as="geometry" />
        </mxCell>
        <mxCell id="j317D0vzL4WZu0Wd4Jou-164" value="PP-53&lt;br&gt;O&#39;hara" style="text;html=1;align=center;verticalAlign=middle;resizable=0;points=[];autosize=1;strokeColor=none;fillColor=none;" vertex="1" parent="j317D0vzL4WZu0Wd4Jou-107">
          <mxGeometry x="64" y="140" width="60" height="40" as="geometry" />
        </mxCell>
        <mxCell id="j317D0vzL4WZu0Wd4Jou-166" value="PP-10&lt;br&gt;Knudson" style="text;html=1;align=center;verticalAlign=middle;resizable=0;points=[];autosize=1;strokeColor=none;fillColor=none;" vertex="1" parent="j317D0vzL4WZu0Wd4Jou-107">
          <mxGeometry x="105" y="150" width="70" height="40" as="geometry" />
        </mxCell>
        <mxCell id="j317D0vzL4WZu0Wd4Jou-167" style="edgeStyle=orthogonalEdgeStyle;rounded=0;jumpStyle=arc;orthogonalLoop=1;jettySize=auto;html=1;entryX=0.5;entryY=1;entryDx=0;entryDy=0;startArrow=classic;startFill=1;strokeColor=default;" edge="1" parent="j317D0vzL4WZu0Wd4Jou-107" source="j317D0vzL4WZu0Wd4Jou-166" target="j317D0vzL4WZu0Wd4Jou-87">
          <mxGeometry relative="1" as="geometry" />
        </mxCell>
        <mxCell id="j317D0vzL4WZu0Wd4Jou-170" value="PP-56&lt;br&gt;Evans" style="text;html=1;align=center;verticalAlign=middle;resizable=0;points=[];autosize=1;strokeColor=none;fillColor=none;" vertex="1" parent="j317D0vzL4WZu0Wd4Jou-107">
          <mxGeometry x="175" y="150" width="60" height="40" as="geometry" />
        </mxCell>
        <mxCell id="j317D0vzL4WZu0Wd4Jou-171" style="edgeStyle=orthogonalEdgeStyle;rounded=0;jumpStyle=arc;orthogonalLoop=1;jettySize=auto;html=1;entryX=0.5;entryY=1;entryDx=0;entryDy=0;startArrow=classic;startFill=1;strokeColor=default;" edge="1" parent="j317D0vzL4WZu0Wd4Jou-107" source="j317D0vzL4WZu0Wd4Jou-170" target="j317D0vzL4WZu0Wd4Jou-89">
          <mxGeometry relative="1" as="geometry" />
        </mxCell>
        <mxCell id="j317D0vzL4WZu0Wd4Jou-174" value="PP-59&lt;br&gt;Mills" style="text;html=1;align=center;verticalAlign=middle;resizable=0;points=[];autosize=1;strokeColor=none;fillColor=none;" vertex="1" parent="j317D0vzL4WZu0Wd4Jou-107">
          <mxGeometry x="242.5" y="170" width="60" height="40" as="geometry" />
        </mxCell>
        <mxCell id="j317D0vzL4WZu0Wd4Jou-175" style="edgeStyle=orthogonalEdgeStyle;rounded=0;jumpStyle=arc;orthogonalLoop=1;jettySize=auto;html=1;entryX=0.5;entryY=1;entryDx=0;entryDy=0;startArrow=classic;startFill=1;strokeColor=default;" edge="1" parent="j317D0vzL4WZu0Wd4Jou-107" source="j317D0vzL4WZu0Wd4Jou-174" target="j317D0vzL4WZu0Wd4Jou-91">
          <mxGeometry relative="1" as="geometry" />
        </mxCell>
        <mxCell id="j317D0vzL4WZu0Wd4Jou-180" value="PP-40&lt;br&gt;Walters" style="text;html=1;align=center;verticalAlign=middle;resizable=0;points=[];autosize=1;strokeColor=none;fillColor=none;" vertex="1" parent="j317D0vzL4WZu0Wd4Jou-107">
          <mxGeometry x="630" y="150" width="60" height="40" as="geometry" />
        </mxCell>
        <mxCell id="j317D0vzL4WZu0Wd4Jou-181" style="edgeStyle=orthogonalEdgeStyle;rounded=0;jumpStyle=arc;orthogonalLoop=1;jettySize=auto;html=1;startArrow=classic;startFill=1;strokeColor=default;" edge="1" parent="j317D0vzL4WZu0Wd4Jou-107" source="j317D0vzL4WZu0Wd4Jou-180" target="j317D0vzL4WZu0Wd4Jou-102">
          <mxGeometry relative="1" as="geometry" />
        </mxCell>
        <mxCell id="j317D0vzL4WZu0Wd4Jou-182" value="PP-42&lt;br&gt;Wick" style="text;html=1;align=center;verticalAlign=middle;resizable=0;points=[];autosize=1;strokeColor=none;fillColor=none;" vertex="1" parent="j317D0vzL4WZu0Wd4Jou-107">
          <mxGeometry x="670" y="180" width="60" height="40" as="geometry" />
        </mxCell>
        <mxCell id="j317D0vzL4WZu0Wd4Jou-183" style="edgeStyle=orthogonalEdgeStyle;rounded=0;jumpStyle=arc;orthogonalLoop=1;jettySize=auto;html=1;entryX=0.5;entryY=1;entryDx=0;entryDy=0;startArrow=classic;startFill=1;strokeColor=default;" edge="1" parent="j317D0vzL4WZu0Wd4Jou-107" source="j317D0vzL4WZu0Wd4Jou-182" target="j317D0vzL4WZu0Wd4Jou-103">
          <mxGeometry relative="1" as="geometry" />
        </mxCell>
        <mxCell id="j317D0vzL4WZu0Wd4Jou-184" value="Direct&lt;br&gt;UPS" style="text;html=1;align=center;verticalAlign=middle;resizable=0;points=[];autosize=1;strokeColor=none;fillColor=none;" vertex="1" parent="j317D0vzL4WZu0Wd4Jou-107">
          <mxGeometry x="810" y="120" width="50" height="40" as="geometry" />
        </mxCell>
        <mxCell id="j317D0vzL4WZu0Wd4Jou-185" style="edgeStyle=orthogonalEdgeStyle;rounded=0;jumpStyle=arc;orthogonalLoop=1;jettySize=auto;html=1;startArrow=classic;startFill=1;strokeColor=default;" edge="1" parent="j317D0vzL4WZu0Wd4Jou-107" source="j317D0vzL4WZu0Wd4Jou-184" target="j317D0vzL4WZu0Wd4Jou-105">
          <mxGeometry relative="1" as="geometry" />
        </mxCell>
        <mxCell id="j317D0vzL4WZu0Wd4Jou-186" value="PP-48&lt;br&gt;Weaver" style="text;html=1;align=center;verticalAlign=middle;resizable=0;points=[];autosize=1;strokeColor=none;fillColor=none;" vertex="1" parent="j317D0vzL4WZu0Wd4Jou-107">
          <mxGeometry x="840" y="80" width="60" height="40" as="geometry" />
        </mxCell>
        <mxCell id="j317D0vzL4WZu0Wd4Jou-187" style="edgeStyle=orthogonalEdgeStyle;rounded=0;jumpStyle=arc;orthogonalLoop=1;jettySize=auto;html=1;entryX=0.5;entryY=1;entryDx=0;entryDy=0;startArrow=classic;startFill=1;strokeColor=default;" edge="1" parent="j317D0vzL4WZu0Wd4Jou-107" source="j317D0vzL4WZu0Wd4Jou-186" target="j317D0vzL4WZu0Wd4Jou-106">
          <mxGeometry relative="1" as="geometry" />
        </mxCell>
        <mxCell id="j317D0vzL4WZu0Wd4Jou-124" style="edgeStyle=orthogonalEdgeStyle;rounded=0;jumpStyle=arc;orthogonalLoop=1;jettySize=auto;html=1;entryX=0;entryY=0.5;entryDx=0;entryDy=0;startArrow=classic;startFill=1;strokeColor=default;" edge="1" parent="1" source="j317D0vzL4WZu0Wd4Jou-115" target="j317D0vzL4WZu0Wd4Jou-27">
          <mxGeometry relative="1" as="geometry" />
        </mxCell>
        <mxCell id="j317D0vzL4WZu0Wd4Jou-115" value="AP-RSB3" style="text;html=1;align=center;verticalAlign=middle;resizable=0;points=[];autosize=1;strokeColor=none;fillColor=none;" vertex="1" parent="1">
          <mxGeometry x="1140" y="360" width="70" height="30" as="geometry" />
        </mxCell>
        <mxCell id="j317D0vzL4WZu0Wd4Jou-128" style="edgeStyle=orthogonalEdgeStyle;rounded=0;jumpStyle=arc;orthogonalLoop=1;jettySize=auto;html=1;entryX=0.5;entryY=0;entryDx=0;entryDy=0;startArrow=classic;startFill=1;strokeColor=default;" edge="1" parent="1" source="j317D0vzL4WZu0Wd4Jou-127" target="j317D0vzL4WZu0Wd4Jou-32">
          <mxGeometry relative="1" as="geometry" />
        </mxCell>
        <mxCell id="j317D0vzL4WZu0Wd4Jou-127" value="PP-7&lt;br&gt;Holly" style="text;html=1;align=center;verticalAlign=middle;resizable=0;points=[];autosize=1;strokeColor=none;fillColor=none;" vertex="1" parent="1">
          <mxGeometry x="1306" y="262.8" width="50" height="40" as="geometry" />
        </mxCell>
        <mxCell id="j317D0vzL4WZu0Wd4Jou-130" style="edgeStyle=orthogonalEdgeStyle;rounded=0;jumpStyle=arc;orthogonalLoop=1;jettySize=auto;html=1;startArrow=classic;startFill=1;strokeColor=default;" edge="1" parent="1" source="j317D0vzL4WZu0Wd4Jou-129" target="j317D0vzL4WZu0Wd4Jou-33">
          <mxGeometry relative="1" as="geometry" />
        </mxCell>
        <mxCell id="j317D0vzL4WZu0Wd4Jou-129" value="PP-54&lt;br&gt;Hayman" style="text;html=1;align=center;verticalAlign=middle;resizable=0;points=[];autosize=1;strokeColor=none;fillColor=none;" vertex="1" parent="1">
          <mxGeometry x="1341" y="240" width="70" height="40" as="geometry" />
        </mxCell>
        <mxCell id="j317D0vzL4WZu0Wd4Jou-132" style="edgeStyle=orthogonalEdgeStyle;rounded=0;jumpStyle=arc;orthogonalLoop=1;jettySize=auto;html=1;entryX=0.5;entryY=0;entryDx=0;entryDy=0;startArrow=classic;startFill=1;strokeColor=default;" edge="1" parent="1" source="j317D0vzL4WZu0Wd4Jou-131" target="j317D0vzL4WZu0Wd4Jou-34">
          <mxGeometry relative="1" as="geometry" />
        </mxCell>
        <mxCell id="j317D0vzL4WZu0Wd4Jou-131" value="PP-11&lt;br&gt;RSB Printer" style="text;html=1;align=center;verticalAlign=middle;resizable=0;points=[];autosize=1;strokeColor=none;fillColor=none;" vertex="1" parent="1">
          <mxGeometry x="1383.5" y="256.4" width="90" height="40" as="geometry" />
        </mxCell>
        <mxCell id="j317D0vzL4WZu0Wd4Jou-134" style="edgeStyle=orthogonalEdgeStyle;rounded=0;jumpStyle=arc;orthogonalLoop=1;jettySize=auto;html=1;entryX=0.5;entryY=0;entryDx=0;entryDy=0;startArrow=classic;startFill=1;strokeColor=default;" edge="1" parent="1" source="j317D0vzL4WZu0Wd4Jou-133" target="j317D0vzL4WZu0Wd4Jou-35">
          <mxGeometry relative="1" as="geometry" />
        </mxCell>
        <mxCell id="j317D0vzL4WZu0Wd4Jou-133" value="PP-13&lt;br&gt;Clint" style="text;html=1;align=center;verticalAlign=middle;resizable=0;points=[];autosize=1;strokeColor=none;fillColor=none;" vertex="1" parent="1">
          <mxGeometry x="1431" y="200" width="60" height="40" as="geometry" />
        </mxCell>
        <mxCell id="j317D0vzL4WZu0Wd4Jou-136" style="edgeStyle=orthogonalEdgeStyle;rounded=0;jumpStyle=arc;orthogonalLoop=1;jettySize=auto;html=1;entryX=0.5;entryY=0;entryDx=0;entryDy=0;startArrow=classic;startFill=1;strokeColor=default;" edge="1" parent="1" source="j317D0vzL4WZu0Wd4Jou-135" target="j317D0vzL4WZu0Wd4Jou-36">
          <mxGeometry relative="1" as="geometry" />
        </mxCell>
        <mxCell id="j317D0vzL4WZu0Wd4Jou-135" value="PP-58&lt;br&gt;Morales" style="text;html=1;align=center;verticalAlign=middle;resizable=0;points=[];autosize=1;strokeColor=none;fillColor=none;" vertex="1" parent="1">
          <mxGeometry x="1461" y="250" width="70" height="40" as="geometry" />
        </mxCell>
        <mxCell id="j317D0vzL4WZu0Wd4Jou-138" style="edgeStyle=orthogonalEdgeStyle;rounded=0;jumpStyle=arc;orthogonalLoop=1;jettySize=auto;html=1;startArrow=classic;startFill=1;strokeColor=default;" edge="1" parent="1" source="j317D0vzL4WZu0Wd4Jou-137" target="j317D0vzL4WZu0Wd4Jou-37">
          <mxGeometry relative="1" as="geometry" />
        </mxCell>
        <mxCell id="j317D0vzL4WZu0Wd4Jou-137" value="PP-17&lt;br&gt;Holborow" style="text;html=1;align=center;verticalAlign=middle;resizable=0;points=[];autosize=1;strokeColor=none;fillColor=none;" vertex="1" parent="1">
          <mxGeometry x="1496" y="190" width="70" height="40" as="geometry" />
        </mxCell>
        <mxCell id="j317D0vzL4WZu0Wd4Jou-140" style="edgeStyle=orthogonalEdgeStyle;rounded=0;jumpStyle=arc;orthogonalLoop=1;jettySize=auto;html=1;startArrow=classic;startFill=1;strokeColor=default;" edge="1" parent="1" source="j317D0vzL4WZu0Wd4Jou-139" target="j317D0vzL4WZu0Wd4Jou-38">
          <mxGeometry relative="1" as="geometry" />
        </mxCell>
        <mxCell id="j317D0vzL4WZu0Wd4Jou-139" value="PP-19&lt;br&gt;Thomas" style="text;html=1;align=center;verticalAlign=middle;resizable=0;points=[];autosize=1;strokeColor=none;fillColor=none;" vertex="1" parent="1">
          <mxGeometry x="1528.5" y="240" width="70" height="40" as="geometry" />
        </mxCell>
        <mxCell id="j317D0vzL4WZu0Wd4Jou-142" style="edgeStyle=orthogonalEdgeStyle;rounded=0;jumpStyle=arc;orthogonalLoop=1;jettySize=auto;html=1;startArrow=classic;startFill=1;strokeColor=default;" edge="1" parent="1" source="j317D0vzL4WZu0Wd4Jou-141" target="j317D0vzL4WZu0Wd4Jou-39">
          <mxGeometry relative="1" as="geometry" />
        </mxCell>
        <mxCell id="j317D0vzL4WZu0Wd4Jou-141" value="PP-12&lt;br&gt;PitneyBowes" style="text;html=1;align=center;verticalAlign=middle;resizable=0;points=[];autosize=1;strokeColor=none;fillColor=none;" vertex="1" parent="1">
          <mxGeometry x="1565" y="190" width="90" height="40" as="geometry" />
        </mxCell>
        <mxCell id="j317D0vzL4WZu0Wd4Jou-144" style="edgeStyle=orthogonalEdgeStyle;rounded=0;jumpStyle=arc;orthogonalLoop=1;jettySize=auto;html=1;startArrow=classic;startFill=1;strokeColor=default;" edge="1" parent="1" source="j317D0vzL4WZu0Wd4Jou-143" target="j317D0vzL4WZu0Wd4Jou-40">
          <mxGeometry relative="1" as="geometry" />
        </mxCell>
        <mxCell id="j317D0vzL4WZu0Wd4Jou-143" value="PP-23&lt;br&gt;Bromagem" style="text;html=1;align=center;verticalAlign=middle;resizable=0;points=[];autosize=1;strokeColor=none;fillColor=none;" vertex="1" parent="1">
          <mxGeometry x="1600" y="240" width="80" height="40" as="geometry" />
        </mxCell>
        <mxCell id="j317D0vzL4WZu0Wd4Jou-148" style="edgeStyle=orthogonalEdgeStyle;rounded=0;jumpStyle=arc;orthogonalLoop=1;jettySize=auto;html=1;startArrow=classic;startFill=1;strokeColor=default;" edge="1" parent="1" source="j317D0vzL4WZu0Wd4Jou-147" target="j317D0vzL4WZu0Wd4Jou-81">
          <mxGeometry relative="1" as="geometry" />
        </mxCell>
        <mxCell id="j317D0vzL4WZu0Wd4Jou-147" value="DIrect&lt;br&gt;Sonos Boost" style="text;html=1;align=center;verticalAlign=middle;resizable=0;points=[];autosize=1;strokeColor=none;fillColor=none;" vertex="1" parent="1">
          <mxGeometry x="1996" y="256.4" width="90" height="40" as="geometry" />
        </mxCell>
        <mxCell id="j317D0vzL4WZu0Wd4Jou-152" style="edgeStyle=orthogonalEdgeStyle;rounded=0;jumpStyle=arc;orthogonalLoop=1;jettySize=auto;html=1;entryX=0.5;entryY=0;entryDx=0;entryDy=0;startArrow=classic;startFill=1;strokeColor=default;" edge="1" parent="1" source="j317D0vzL4WZu0Wd4Jou-151" target="j317D0vzL4WZu0Wd4Jou-48">
          <mxGeometry relative="1" as="geometry" />
        </mxCell>
        <mxCell id="j317D0vzL4WZu0Wd4Jou-151" value="PP-39&lt;br&gt;RSB Prod Printer" style="text;html=1;align=center;verticalAlign=middle;resizable=0;points=[];autosize=1;strokeColor=none;fillColor=none;" vertex="1" parent="1">
          <mxGeometry x="1858.5" y="216.4" width="120" height="40" as="geometry" />
        </mxCell>
        <mxCell id="j317D0vzL4WZu0Wd4Jou-149" value="PP-41&lt;br&gt;Henrikson" style="text;html=1;align=center;verticalAlign=middle;resizable=0;points=[];autosize=1;strokeColor=none;fillColor=none;" vertex="1" parent="1">
          <mxGeometry x="1918.5" y="270" width="80" height="40" as="geometry" />
        </mxCell>
        <mxCell id="j317D0vzL4WZu0Wd4Jou-150" style="edgeStyle=orthogonalEdgeStyle;rounded=0;jumpStyle=arc;orthogonalLoop=1;jettySize=auto;html=1;startArrow=classic;startFill=1;strokeColor=default;" edge="1" parent="1" source="j317D0vzL4WZu0Wd4Jou-149" target="j317D0vzL4WZu0Wd4Jou-79">
          <mxGeometry relative="1" as="geometry" />
        </mxCell>
        <mxCell id="j317D0vzL4WZu0Wd4Jou-154" style="edgeStyle=orthogonalEdgeStyle;rounded=0;jumpStyle=arc;orthogonalLoop=1;jettySize=auto;html=1;startArrow=classic;startFill=1;strokeColor=default;" edge="1" parent="1" source="j317D0vzL4WZu0Wd4Jou-153" target="j317D0vzL4WZu0Wd4Jou-47">
          <mxGeometry relative="1" as="geometry" />
        </mxCell>
        <mxCell id="j317D0vzL4WZu0Wd4Jou-153" value="PP-37&lt;br&gt;Cross" style="text;html=1;align=center;verticalAlign=middle;resizable=0;points=[];autosize=1;strokeColor=none;fillColor=none;" vertex="1" parent="1">
          <mxGeometry x="1858.5" y="270" width="60" height="40" as="geometry" />
        </mxCell>
        <mxCell id="j317D0vzL4WZu0Wd4Jou-156" style="edgeStyle=orthogonalEdgeStyle;rounded=0;jumpStyle=arc;orthogonalLoop=1;jettySize=auto;html=1;entryX=0.5;entryY=0;entryDx=0;entryDy=0;startArrow=classic;startFill=1;strokeColor=default;" edge="1" parent="1" source="j317D0vzL4WZu0Wd4Jou-155" target="j317D0vzL4WZu0Wd4Jou-46">
          <mxGeometry relative="1" as="geometry" />
        </mxCell>
        <mxCell id="j317D0vzL4WZu0Wd4Jou-155" value="PP-66&lt;br&gt;PM Display" style="text;html=1;align=center;verticalAlign=middle;resizable=0;points=[];autosize=1;strokeColor=none;fillColor=none;" vertex="1" parent="1">
          <mxGeometry x="1790" y="230" width="80" height="40" as="geometry" />
        </mxCell>
        <mxCell id="j317D0vzL4WZu0Wd4Jou-161" style="edgeStyle=orthogonalEdgeStyle;rounded=0;jumpStyle=arc;orthogonalLoop=1;jettySize=auto;html=1;entryX=0;entryY=0.5;entryDx=0;entryDy=0;startArrow=classic;startFill=1;strokeColor=default;" edge="1" parent="1" source="j317D0vzL4WZu0Wd4Jou-157" target="j317D0vzL4WZu0Wd4Jou-83">
          <mxGeometry relative="1" as="geometry" />
        </mxCell>
        <mxCell id="j317D0vzL4WZu0Wd4Jou-157" value="Direct&lt;br&gt;RSB NVR" style="text;html=1;align=center;verticalAlign=middle;resizable=0;points=[];autosize=1;strokeColor=none;fillColor=none;" vertex="1" parent="1">
          <mxGeometry x="1120" y="440" width="80" height="40" as="geometry" />
        </mxCell>
        <mxCell id="j317D0vzL4WZu0Wd4Jou-159" value="PP-3&lt;br&gt;Reception Desk Switch" style="text;html=1;align=center;verticalAlign=middle;resizable=0;points=[];autosize=1;strokeColor=none;fillColor=none;" vertex="1" parent="1">
          <mxGeometry x="1115" y="490" width="150" height="40" as="geometry" />
        </mxCell>
        <mxCell id="j317D0vzL4WZu0Wd4Jou-160" style="edgeStyle=orthogonalEdgeStyle;rounded=0;jumpStyle=arc;orthogonalLoop=1;jettySize=auto;html=1;entryX=0.5;entryY=1;entryDx=0;entryDy=0;startArrow=classic;startFill=1;strokeColor=default;" edge="1" parent="1" source="j317D0vzL4WZu0Wd4Jou-159" target="j317D0vzL4WZu0Wd4Jou-84">
          <mxGeometry relative="1" as="geometry" />
        </mxCell>
        <mxCell id="j317D0vzL4WZu0Wd4Jou-169" style="edgeStyle=orthogonalEdgeStyle;rounded=0;jumpStyle=arc;orthogonalLoop=1;jettySize=auto;html=1;startArrow=classic;startFill=1;strokeColor=default;" edge="1" parent="1" source="j317D0vzL4WZu0Wd4Jou-168" target="j317D0vzL4WZu0Wd4Jou-88">
          <mxGeometry relative="1" as="geometry" />
        </mxCell>
        <mxCell id="j317D0vzL4WZu0Wd4Jou-168" value="PP-55&lt;br&gt;Weaver" style="text;html=1;align=center;verticalAlign=middle;resizable=0;points=[];autosize=1;strokeColor=none;fillColor=none;" vertex="1" parent="1">
          <mxGeometry x="1371" y="580" width="60" height="40" as="geometry" />
        </mxCell>
        <mxCell id="j317D0vzL4WZu0Wd4Jou-173" style="edgeStyle=orthogonalEdgeStyle;rounded=0;jumpStyle=arc;orthogonalLoop=1;jettySize=auto;html=1;entryX=0.5;entryY=1;entryDx=0;entryDy=0;startArrow=classic;startFill=1;strokeColor=default;" edge="1" parent="1" source="j317D0vzL4WZu0Wd4Jou-172" target="j317D0vzL4WZu0Wd4Jou-90">
          <mxGeometry relative="1" as="geometry" />
        </mxCell>
        <mxCell id="j317D0vzL4WZu0Wd4Jou-172" value="PP-57&lt;br&gt;Jacobs" style="text;html=1;align=center;verticalAlign=middle;resizable=0;points=[];autosize=1;strokeColor=none;fillColor=none;" vertex="1" parent="1">
          <mxGeometry x="1436" y="580" width="60" height="40" as="geometry" />
        </mxCell>
        <mxCell id="j317D0vzL4WZu0Wd4Jou-177" style="edgeStyle=orthogonalEdgeStyle;rounded=0;jumpStyle=arc;orthogonalLoop=1;jettySize=auto;html=1;startArrow=classic;startFill=1;strokeColor=default;" edge="1" parent="1" source="j317D0vzL4WZu0Wd4Jou-176" target="j317D0vzL4WZu0Wd4Jou-92">
          <mxGeometry relative="1" as="geometry" />
        </mxCell>
        <mxCell id="j317D0vzL4WZu0Wd4Jou-176" value="PP-61&lt;br&gt;Lawless" style="text;html=1;align=center;verticalAlign=middle;resizable=0;points=[];autosize=1;strokeColor=none;fillColor=none;" vertex="1" parent="1">
          <mxGeometry x="1510" y="590" width="70" height="40" as="geometry" />
        </mxCell>
        <mxCell id="j317D0vzL4WZu0Wd4Jou-179" style="edgeStyle=orthogonalEdgeStyle;rounded=0;jumpStyle=arc;orthogonalLoop=1;jettySize=auto;html=1;startArrow=classic;startFill=1;strokeColor=default;" edge="1" parent="1" source="j317D0vzL4WZu0Wd4Jou-178" target="j317D0vzL4WZu0Wd4Jou-100">
          <mxGeometry relative="1" as="geometry" />
        </mxCell>
        <mxCell id="j317D0vzL4WZu0Wd4Jou-178" value="Direct&lt;br&gt;Hallway Display" style="text;html=1;align=center;verticalAlign=middle;resizable=0;points=[];autosize=1;strokeColor=none;fillColor=none;" vertex="1" parent="1">
          <mxGeometry x="1775" y="560" width="110" height="40" as="geometry" />
        </mxCell>
        <mxCell id="j317D0vzL4WZu0Wd4Jou-189" style="edgeStyle=orthogonalEdgeStyle;rounded=0;jumpStyle=arc;orthogonalLoop=1;jettySize=auto;html=1;startArrow=classic;startFill=1;strokeColor=default;" edge="1" parent="1" source="j317D0vzL4WZu0Wd4Jou-188" target="j317D0vzL4WZu0Wd4Jou-80">
          <mxGeometry relative="1" as="geometry" />
        </mxCell>
        <mxCell id="j317D0vzL4WZu0Wd4Jou-188" value="White Wire Through Celling&lt;br&gt;Coriaty" style="text;html=1;align=center;verticalAlign=middle;resizable=0;points=[];autosize=1;strokeColor=none;fillColor=none;" vertex="1" parent="1">
          <mxGeometry x="1916" y="200" width="170" height="40" as="geometry" />
        </mxCell>
        <mxCell id="j317D0vzL4WZu0Wd4Jou-191" style="edgeStyle=orthogonalEdgeStyle;rounded=0;jumpStyle=arc;orthogonalLoop=1;jettySize=auto;html=1;entryX=-0.013;entryY=0.568;entryDx=0;entryDy=0;entryPerimeter=0;startArrow=classic;startFill=1;strokeColor=default;" edge="1" parent="1" source="j317D0vzL4WZu0Wd4Jou-190" target="j317D0vzL4WZu0Wd4Jou-24">
          <mxGeometry relative="1" as="geometry" />
        </mxCell>
        <mxCell id="j317D0vzL4WZu0Wd4Jou-203" style="edgeStyle=orthogonalEdgeStyle;rounded=0;jumpStyle=arc;orthogonalLoop=1;jettySize=auto;html=1;startArrow=classic;startFill=1;strokeColor=default;" edge="1" parent="1" source="j317D0vzL4WZu0Wd4Jou-190" target="j317D0vzL4WZu0Wd4Jou-202">
          <mxGeometry relative="1" as="geometry" />
        </mxCell>
        <mxCell id="j317D0vzL4WZu0Wd4Jou-204" style="edgeStyle=orthogonalEdgeStyle;rounded=0;jumpStyle=arc;orthogonalLoop=1;jettySize=auto;html=1;entryX=0.4;entryY=-0.1;entryDx=0;entryDy=0;entryPerimeter=0;startArrow=classic;startFill=1;strokeColor=default;" edge="1" parent="1" source="j317D0vzL4WZu0Wd4Jou-190" target="j317D0vzL4WZu0Wd4Jou-199">
          <mxGeometry relative="1" as="geometry" />
        </mxCell>
        <mxCell id="j317D0vzL4WZu0Wd4Jou-205" style="edgeStyle=orthogonalEdgeStyle;rounded=0;jumpStyle=arc;orthogonalLoop=1;jettySize=auto;html=1;startArrow=classic;startFill=1;strokeColor=default;" edge="1" parent="1" source="j317D0vzL4WZu0Wd4Jou-190" target="j317D0vzL4WZu0Wd4Jou-200">
          <mxGeometry relative="1" as="geometry">
            <Array as="points">
              <mxPoint x="335" y="390" />
              <mxPoint x="655" y="390" />
            </Array>
          </mxGeometry>
        </mxCell>
        <mxCell id="j317D0vzL4WZu0Wd4Jou-190" value="AP-RSB3" style="verticalLabelPosition=bottom;sketch=0;html=1;fillColor=#6ABD46;strokeColor=#ffffff;verticalAlign=top;align=center;points=[[0.085,0.085,0],[0.915,0.085,0],[0.915,0.915,0],[0.085,0.915,0],[0.25,0,0],[0.5,0,0],[0.75,0,0],[1,0.25,0],[1,0.5,0],[1,0.75,0],[0.75,1,0],[0.5,1,0],[0.25,1,0],[0,0.75,0],[0,0.5,0],[0,0.25,0]];pointerEvents=1;shape=mxgraph.cisco_safe.compositeIcon;bgIcon=mxgraph.cisco_safe.architecture.generic_appliance;resIcon=mxgraph.cisco_safe.architecture.wireless_access_point;" vertex="1" parent="1">
          <mxGeometry x="310" y="330" width="50" height="50" as="geometry" />
        </mxCell>
        <mxCell id="j317D0vzL4WZu0Wd4Jou-207" style="edgeStyle=orthogonalEdgeStyle;rounded=0;jumpStyle=arc;orthogonalLoop=1;jettySize=auto;html=1;startArrow=classic;startFill=1;strokeColor=default;" edge="1" parent="1" source="j317D0vzL4WZu0Wd4Jou-192" target="j317D0vzL4WZu0Wd4Jou-199">
          <mxGeometry relative="1" as="geometry" />
        </mxCell>
        <mxCell id="j317D0vzL4WZu0Wd4Jou-208" style="edgeStyle=orthogonalEdgeStyle;rounded=0;jumpStyle=arc;orthogonalLoop=1;jettySize=auto;html=1;startArrow=none;startFill=1;strokeColor=default;" edge="1" parent="1" source="j317D0vzL4WZu0Wd4Jou-199" target="j317D0vzL4WZu0Wd4Jou-202">
          <mxGeometry relative="1" as="geometry">
            <Array as="points">
              <mxPoint x="470" y="460" />
              <mxPoint x="470" y="555" />
            </Array>
          </mxGeometry>
        </mxCell>
        <mxCell id="j317D0vzL4WZu0Wd4Jou-209" style="edgeStyle=orthogonalEdgeStyle;rounded=0;jumpStyle=arc;orthogonalLoop=1;jettySize=auto;html=1;startArrow=classic;startFill=1;strokeColor=default;" edge="1" parent="1" source="j317D0vzL4WZu0Wd4Jou-192" target="j317D0vzL4WZu0Wd4Jou-200">
          <mxGeometry relative="1" as="geometry" />
        </mxCell>
        <mxCell id="j317D0vzL4WZu0Wd4Jou-192" value="AP-RSB2" style="verticalLabelPosition=bottom;sketch=0;html=1;fillColor=#6ABD46;strokeColor=#ffffff;verticalAlign=top;align=center;points=[[0.085,0.085,0],[0.915,0.085,0],[0.915,0.915,0],[0.085,0.915,0],[0.25,0,0],[0.5,0,0],[0.75,0,0],[1,0.25,0],[1,0.5,0],[1,0.75,0],[0.75,1,0],[0.5,1,0],[0.25,1,0],[0,0.75,0],[0,0.5,0],[0,0.25,0]];pointerEvents=1;shape=mxgraph.cisco_safe.compositeIcon;bgIcon=mxgraph.cisco_safe.architecture.generic_appliance;resIcon=mxgraph.cisco_safe.architecture.wireless_access_point;" vertex="1" parent="1">
          <mxGeometry x="780" y="420" width="50" height="50" as="geometry" />
        </mxCell>
        <mxCell id="j317D0vzL4WZu0Wd4Jou-196" style="edgeStyle=orthogonalEdgeStyle;rounded=0;jumpStyle=arc;orthogonalLoop=1;jettySize=auto;html=1;startArrow=classic;startFill=1;strokeColor=default;" edge="1" parent="1" source="j317D0vzL4WZu0Wd4Jou-195" target="j317D0vzL4WZu0Wd4Jou-192">
          <mxGeometry relative="1" as="geometry" />
        </mxCell>
        <mxCell id="j317D0vzL4WZu0Wd4Jou-195" value="Foreman Trailer Switch&lt;br&gt;" style="verticalLabelPosition=bottom;sketch=0;html=1;fillColor=#6ABD46;strokeColor=#ffffff;verticalAlign=top;align=center;points=[[0.085,0.085,0],[0.915,0.085,0],[0.915,0.915,0],[0.085,0.915,0],[0.25,0,0],[0.5,0,0],[0.75,0,0],[1,0.25,0],[1,0.5,0],[1,0.75,0],[0.75,1,0],[0.5,1,0],[0.25,1,0],[0,0.75,0],[0,0.5,0],[0,0.25,0]];pointerEvents=1;shape=mxgraph.cisco_safe.compositeIcon;bgIcon=mxgraph.cisco_safe.architecture.generic_appliance;resIcon=mxgraph.cisco_safe.architecture.switch;" vertex="1" parent="1">
          <mxGeometry x="680" y="320" width="50" height="50" as="geometry" />
        </mxCell>
        <mxCell id="j317D0vzL4WZu0Wd4Jou-200" value="TerraFirma Guest" style="sketch=0;pointerEvents=1;shadow=0;dashed=0;html=1;strokeColor=none;fillColor=#434445;aspect=fixed;labelPosition=center;verticalLabelPosition=bottom;verticalAlign=top;align=center;outlineConnect=0;shape=mxgraph.vvd.wi_fi;" vertex="1" parent="1">
          <mxGeometry x="575" y="600" width="50" height="50" as="geometry" />
        </mxCell>
        <mxCell id="j317D0vzL4WZu0Wd4Jou-202" value="TerraFirma" style="sketch=0;pointerEvents=1;shadow=0;dashed=0;html=1;strokeColor=none;fillColor=#434445;aspect=fixed;labelPosition=center;verticalLabelPosition=bottom;verticalAlign=top;align=center;outlineConnect=0;shape=mxgraph.vvd.wi_fi;" vertex="1" parent="1">
          <mxGeometry x="320" y="600" width="50" height="50" as="geometry" />
        </mxCell>
        <mxCell id="j317D0vzL4WZu0Wd4Jou-199" value="TerraFirma Public&lt;br&gt;" style="sketch=0;pointerEvents=1;shadow=0;dashed=0;html=1;strokeColor=none;fillColor=#434445;aspect=fixed;labelPosition=center;verticalLabelPosition=bottom;verticalAlign=top;align=center;outlineConnect=0;shape=mxgraph.vvd.wi_fi;" vertex="1" parent="1">
          <mxGeometry x="430" y="600" width="50" height="50" as="geometry" />
        </mxCell>
        <mxCell id="j317D0vzL4WZu0Wd4Jou-210" value="" style="edgeStyle=orthogonalEdgeStyle;rounded=0;jumpStyle=arc;orthogonalLoop=1;jettySize=auto;html=1;startArrow=classic;startFill=1;strokeColor=default;endArrow=none;" edge="1" parent="1" source="j317D0vzL4WZu0Wd4Jou-192" target="j317D0vzL4WZu0Wd4Jou-199">
          <mxGeometry relative="1" as="geometry">
            <mxPoint x="780" y="460" as="sourcePoint" />
            <mxPoint x="370" y="625" as="targetPoint" />
            <Array as="points">
              <mxPoint x="705" y="460" />
            </Array>
          </mxGeometry>
        </mxCell>
      </root>
    </mxGraphModel>
  </diagram>
</mxfile>
